<svg xmlns="http://www.w3.org/2000/svg" width="99.669" height="29.62" viewBox="0 0 99.669 29.62"><path d="M11.659.4A10.539,10.539,0,0,1,6.187-.951,9.021,9.021,0,0,1,2.679-4.723a12.159,12.159,0,0,1-1.221-5.56,12.1,12.1,0,0,1,1.235-5.593,9.132,9.132,0,0,1,3.515-3.765A10.421,10.421,0,0,1,11.632-21a10.8,10.8,0,0,1,4.75.985,7.94,7.94,0,0,1,3.225,2.766,8.13,8.13,0,0,1,1.309,4.183H15.491a4.24,4.24,0,0,0-1.208-2.5,3.513,3.513,0,0,0-2.557-.951A3.849,3.849,0,0,0,9.4-15.8a4.662,4.662,0,0,0-1.545,2.1A8.943,8.943,0,0,0,7.3-10.364,9.236,9.236,0,0,0,7.847-6.99,4.637,4.637,0,0,0,9.392-4.871a3.854,3.854,0,0,0,2.335.729,3.832,3.832,0,0,0,1.775-.4A3.461,3.461,0,0,0,14.81-5.728,4.5,4.5,0,0,0,15.491-7.6h5.425a8.5,8.5,0,0,1-1.289,4.176A7.856,7.856,0,0,1,16.45-.607,10.6,10.6,0,0,1,11.659.4ZM24.627,0l-.013-20.727h5.749V0ZM27.5-23.413a3.037,3.037,0,0,1-2.193-.843,2.726,2.726,0,0,1-.911-2.058,2.691,2.691,0,0,1,.911-2.038,3.151,3.151,0,0,1,2.193-.864,3.086,3.086,0,0,1,2.193.857,2.711,2.711,0,0,1,.911,2.044,2.726,2.726,0,0,1-.911,2.058A3.037,3.037,0,0,1,27.5-23.413ZM34.95,0V-20.727h5.573v3.616h.216a5.387,5.387,0,0,1,1.9-2.922,5.024,5.024,0,0,1,3.077-.992,8.7,8.7,0,0,1,.931.054,6.557,6.557,0,0,1,.877.148v5.1a7.511,7.511,0,0,0-1.12-.216,10.062,10.062,0,0,0-1.309-.094,4.605,4.605,0,0,0-2.26.547,4.061,4.061,0,0,0-1.565,1.518,4.323,4.323,0,0,0-.574,2.24V0ZM58.876.4A10.539,10.539,0,0,1,53.4-.951,9.021,9.021,0,0,1,49.9-4.723a12.159,12.159,0,0,1-1.221-5.56,12.1,12.1,0,0,1,1.235-5.593,9.132,9.132,0,0,1,3.515-3.765A10.421,10.421,0,0,1,58.849-21a10.8,10.8,0,0,1,4.75.985,7.94,7.94,0,0,1,3.225,2.766,8.13,8.13,0,0,1,1.309,4.183H62.708a4.24,4.24,0,0,0-1.208-2.5,3.513,3.513,0,0,0-2.557-.951,3.849,3.849,0,0,0-2.328.722,4.662,4.662,0,0,0-1.545,2.1,8.943,8.943,0,0,0-.553,3.333,9.236,9.236,0,0,0,.547,3.374,4.637,4.637,0,0,0,1.545,2.119,3.854,3.854,0,0,0,2.335.729,3.832,3.832,0,0,0,1.775-.4,3.461,3.461,0,0,0,1.309-1.181A4.5,4.5,0,0,0,62.708-7.6h5.425a8.5,8.5,0,0,1-1.289,4.176A7.856,7.856,0,0,1,63.666-.607,10.6,10.6,0,0,1,58.876.4Zm18.7-28.041V0H71.844L71.83-27.636ZM91.613.4a10.99,10.99,0,0,1-5.5-1.3,8.808,8.808,0,0,1-3.542-3.7,12.18,12.18,0,0,1-1.241-5.674,12.117,12.117,0,0,1,1.241-5.614,9.163,9.163,0,0,1,3.5-3.765A10.163,10.163,0,0,1,91.384-21a10.97,10.97,0,0,1,3.826.654,8.623,8.623,0,0,1,3.1,1.963,8.944,8.944,0,0,1,2.071,3.286,13.125,13.125,0,0,1,.742,4.622v1.579h-17.5v-3.563H95.715a4.4,4.4,0,0,0-.54-2.2,3.927,3.927,0,0,0-1.491-1.5,4.351,4.351,0,0,0-2.206-.547,4.426,4.426,0,0,0-2.314.6A4.307,4.307,0,0,0,87.592-14.5a4.574,4.574,0,0,0-.58,2.233v3.387a5.765,5.765,0,0,0,.574,2.658,4.105,4.105,0,0,0,1.626,1.727,4.911,4.911,0,0,0,2.5.607,5.436,5.436,0,0,0,1.754-.27,3.641,3.641,0,0,0,1.363-.81,3.52,3.52,0,0,0,.864-1.322L101-5.937A7.248,7.248,0,0,1,99.352-2.6,8.3,8.3,0,0,1,96.14-.385,12.07,12.07,0,0,1,91.613.4Z" transform="translate(-1.457 29.215)" fill="#23232b"/></svg>